<svg xmlns="http://www.w3.org/2000/svg" xmlns:xlink="http://www.w3.org/1999/xlink" width="330" height="287" viewBox="0 0 330 287">
  <defs>
    <linearGradient id="分组-66-a" x1="50%" x2="50%" y1="0%" y2="100%">
      <stop offset="0%" stop-color="#004F77"/>
      <stop offset="100%" stop-color="#002742"/>
    </linearGradient>
    <linearGradient id="分组-66-c" x1="53.867%" x2="53.867%" y1="0%" y2="82.364%">
      <stop offset="0%" stop-color="#00B4EE"/>
      <stop offset="100%" stop-color="#007DD9"/>
    </linearGradient>
    <polygon id="分组-66-b" points="24.146 169.085 305.854 169.085 305.854 115.762 24.146 115.762"/>
    <polygon id="分组-66-d" points="309.878 115.702 20.122 115.702 21.558 111.738 308.441 111.738"/>
    <linearGradient id="分组-66-f" x1="53.867%" x2="53.867%" y1="0%" y2="82.364%">
      <stop offset="0%" stop-color="#015B78"/>
      <stop offset="100%" stop-color="#007DD9" stop-opacity="0"/>
    </linearGradient>
    <polygon id="分组-66-e" points="14.213 100.671 273.787 100.671 273.787 17.104 14.213 17.104"/>
    <linearGradient id="分组-66-h" x1="0%" y1="0%" y2="100%">
      <stop offset="0%" stop-color="#4DECAE"/>
      <stop offset="100%" stop-color="#26D476"/>
    </linearGradient>
    <path id="分组-66-g" d="M51.7062581,103.354334 C23.1490622,103.354334 8.66862138e-13,80.2174749 8.66862138e-13,51.6765557 C8.66862138e-13,23.1356365 23.1490622,3.55271368e-14 51.7062581,3.55271368e-14 C80.261008,3.55271368e-14 103.41007,23.1356365 103.41007,51.6765557 C103.41007,80.2174749 80.261008,103.354334 51.7062581,103.354334 Z"/>
    <linearGradient id="分组-66-j" x1="0%" y1="0%" y2="100%">
      <stop offset="0%" stop-color="#00DEC6"/>
      <stop offset="100%" stop-color="#00BA94"/>
    </linearGradient>
    <path id="分组-66-i" d="M47.8452603,95.6387879 C21.4215195,95.6387879 -6.96331881e-13,74.2298492 -6.96331881e-13,47.8200381 C-6.96331881e-13,21.4102269 21.4215195,7.10542736e-15 47.8452603,7.10542736e-15 C74.2690011,7.10542736e-15 95.6892318,21.4102269 95.6892318,47.8200381 C95.6892318,74.2298492 74.2690011,95.6387879 47.8452603,95.6387879 Z"/>
    <linearGradient id="分组-66-l" x1="0%" y1="0%" y2="100%">
      <stop offset="0%" stop-color="#2ABFF3"/>
      <stop offset="100%" stop-color="#128BE4"/>
    </linearGradient>
    <path id="分组-66-k" d="M92.7988992,46.20697 C92.7988992,71.6248718 72.1829615,92.2299415 46.752714,92.2299415 C21.3214058,92.2299415 0.706528768,71.6248718 0.706528768,46.20697 C0.706528768,20.7901284 21.3214058,0.185058717 46.752714,0.185058717 C72.1829615,0.185058717 92.7988992,20.7901284 92.7988992,46.20697"/>
    <path id="分组-66-m" d="M49.8098607,99.0132362 C22.5722886,99.0132362 0.492133831,76.9447213 0.492133831,49.7215078 C0.492133831,22.4982943 22.5722886,0.428557028 49.8098607,0.428557028 C77.0474329,0.428557028 99.1288106,22.4982943 99.1288106,49.7215078 C99.1288106,76.9447213 77.0474329,99.0132362 49.8098607,99.0132362 Z"/>
    <linearGradient id="分组-66-o" x1="0%" y1="0%" y2="100%">
      <stop offset="0%" stop-color="#00B4EE"/>
      <stop offset="100%" stop-color="#007DD9"/>
    </linearGradient>
    <path id="分组-66-n" d="M2,286.70122 L328,286.70122 C329.104569,286.70122 330,285.805789 330,284.70122 L330,171 L0,171 L0,284.70122 C-7.71316759e-15,285.805789 0.8954305,286.70122 2,286.70122 Z"/>
    <linearGradient id="分组-66-q" x1="50%" x2="50%" y1="0%" y2="100%">
      <stop offset="0%" stop-color="#62CBF3"/>
      <stop offset="100%" stop-color="#B3D1E6"/>
    </linearGradient>
    <path id="分组-66-p" d="M61.3719512,203.292683 L61.3719512,192.22561 L69.4207317,192.22561 L69.4207317,203.292683 L61.3719512,203.292683 Z M260.579268,203.292683 L260.579268,192.22561 L268.628049,192.22561 L268.628049,203.292683 L260.579268,203.292683 Z"/>
  </defs>
  <g fill="none" fill-rule="evenodd">
    <polygon fill="url(#分组-66-a)" points="20.122 115.762 0 171.098 330 171.098 309.878 115.762"/>
    <use fill="#021E33" xlink:href="#分组-66-b"/>
    <use fill="url(#分组-66-c)" fill-opacity=".5" xlink:href="#分组-66-b"/>
    <polygon fill="#47ABFF" points="24.549 115.762 5.51 167.073 1.409 167.073 20.448 115.762"/>
    <polygon fill="#47ABFF" points="328.591 167.073 309.882 115.762 305.852 115.762 324.49 167.073"/>
    <use fill="#47ABFF" xlink:href="#分组-66-d"/>
    <use fill="#000" fill-opacity=".1" xlink:href="#分组-66-d"/>
    <g transform="translate(21)">
      <polygon fill="#2C6993" points=".128 111.738 287.872 111.738 287.872 6.037 .128 6.037"/>
      <polygon fill="#3679B0" points="4.152 107.713 283.848 107.713 283.848 10.061 4.152 10.061"/>
      <use fill="#04649F" xlink:href="#分组-66-e"/>
      <use fill="url(#分组-66-f)" fill-opacity=".5" xlink:href="#分组-66-e"/>
      <polygon fill="#14354C" points="283.848 10.061 4.152 10.061 14.213 17.104 273.787 17.104"/>
      <polygon fill="#002742" points="37.354 6.037 55.463 6.037 55.463 0 37.354 0"/>
      <polygon fill="#002742" points="232.537 6.037 250.646 6.037 250.646 0 232.537 0"/>
      <polygon fill="#709BB8" points="41.378 4.024 51.439 4.024 51.439 2.012 41.378 2.012"/>
      <polygon fill="#709BB8" points="236.561 4.024 246.622 4.024 246.622 2.012 236.561 2.012"/>
    </g>
    <polygon fill="#00568A" points="304.848 107.713 25.152 107.713 35.213 100.671 294.787 100.671"/>
    <g transform="translate(9.055 88.598)">
      <use fill="#26D476" xlink:href="#分组-66-g"/>
      <use fill="url(#分组-66-h)" fill-opacity=".5" xlink:href="#分组-66-g"/>
      <g stroke="#FFF" stroke-linecap="round" stroke-linejoin="round" stroke-width="2.43" transform="translate(23.237 26.892)">
        <path d="M5.77483179 22.690542C5.77483179 19.6731535 6.38687858 16.7990841 7.49339765 14.184197 8.59991671 11.5698592 10.200908 9.21525279 12.1787971 7.23788863 14.1577851 5.26052448 16.5131213 3.66040252 19.1294291 2.55503344 21.744638 1.44856613 24.6213678.837400817 27.6398463.837400817 30.6588742.837400817 33.5345052 1.44856613 36.1508129 2.55503344 38.7665713 3.66040252 41.1224569 5.26052448 43.1008954 7.23788863 45.0793339 9.21525279 46.6803253 11.5698592 47.7868443 14.184197M.837910737 18.4542274L5.79914579 23.4132145M11.0937602 18.0727021L6.1323019 23.0314661" transform="translate(1.131 1.36)"/>
        <path d="M5.77483179 22.690542C5.77483179 19.6731535 6.38687858 16.7990841 7.49339765 14.184197 8.59991671 11.5698592 10.200908 9.21525279 12.1787971 7.23788863 14.1577851 5.26052448 16.5131213 3.66040252 19.1294291 2.55503344 21.744638 1.44856613 24.6213678.837400817 27.6398463.837400817 30.6588742.837400817 33.5345052 1.44856613 36.1508129 2.55503344 38.7665713 3.66040252 41.1224569 5.26052448 43.1008954 7.23788863 45.0793339 9.21525279 46.6803253 11.5698592 47.7868443 14.184197M.837910737 18.4542274L5.79914579 23.4132145M11.0937602 18.0727021L6.1323019 23.0314661" transform="rotate(180 28.047 24.055)"/>
      </g>
    </g>
    <g transform="translate(156.951 70.488)">
      <use fill="#00BA94" xlink:href="#分组-66-i"/>
      <use fill="url(#分组-66-j)" xlink:href="#分组-66-i"/>
      <g stroke="#FFF" stroke-linecap="round" stroke-linejoin="round" stroke-width="2.43" transform="translate(22.014 24.447)">
        <polyline points="7.163 7.159 7.163 46.021 24.066 46.021 42.976 46.021 42.976 7.159"/>
        <path d="M17.9068498 33.7488659L17.9068498 19.4311652M0 6.6475039L51.162428 6.6475039M25.0695897 34.7715589L25.0695897 15.3403936M33.2555782 33.7488659L33.2555782 25.5673227"/>
        <polyline points="14.325 6.136 14.325 0 36.837 0 36.837 6.136"/>
      </g>
    </g>
    <g transform="translate(92.561 91.616)">
      <use fill="#128BE4" xlink:href="#分组-66-k"/>
      <use fill="url(#分组-66-l)" xlink:href="#分组-66-k"/>
      <g stroke="#FFF" stroke-linecap="round" stroke-linejoin="round" stroke-width="2.43" transform="rotate(30 -11.043 107.853)">
        <polygon points=".206 36.166 15.378 36.166 15.378 .127 .206 .127"/>
        <polygon points=".206 7.072 15.378 7.072 15.378 .127 .206 .127"/>
        <polygon points="15.378 36.166 7.693 51.007 .206 36.166"/>
      </g>
    </g>
    <g transform="translate(218.323 99.665)">
      <use fill="#26D476" xlink:href="#分组-66-m"/>
      <use fill="url(#分组-66-h)" fill-opacity=".5" xlink:href="#分组-66-m"/>
      <path stroke="#FFF" stroke-linecap="round" stroke-linejoin="round" stroke-width="2.43" d="M25.6918307 40.4087127C17.551712 40.4087127 10.953523 33.8141067 10.953523 25.6775267 10.953523 17.5418283 17.551712 10.9472223 25.6918307 10.9472223 33.8319494 10.9472223 40.4301384 17.5418283 40.4301384 25.6775267 40.4301384 33.8141067 33.8319494 40.4087127 25.6918307 40.4087127zM25.6918307.440815908C11.7456585.440815908.441408258 11.7398093.441408258 25.6775267.441408258 39.6161257 11.7456585 50.915119 25.6918307 50.915119 39.6380029 50.915119 50.9422531 39.6161257 50.9422531 25.6775267 50.9422531 11.7398093 39.6380029.440815908 25.6918307.440815908zM12.5665508 18.9706008L4.91864997 11.3259713M40.0510954 46.4397796L32.4031945 38.7960318M38.6870874 32.6333372L46.3120534 40.2479912M11.0957193 5.08234293L18.7206852 12.6961153M38.6637997 18.9706008L46.3117006 11.3259713M11.1792551 46.4397796L18.827156 38.7960318M12.5437924 32.6333372L4.91794429 40.2479912M40.1351605 5.08234293L32.5093124 12.6961153" transform="translate(24.027 23.95)"/>
    </g>
    <use fill="#007DD9" xlink:href="#分组-66-n"/>
    <use fill="url(#分组-66-o)" fill-opacity=".5" xlink:href="#分组-66-n"/>
    <path fill="#FFF" d="M191.6475,246.71625 C191.6475,249.035 189.6825,250.915 187.2575,250.915 C187.07875,250.915 186.9025,250.9025 186.72875,250.8825 C186.72,250.8825 186.71125,250.88375 186.70125,250.88375 L165.3825,250.88375 C165.2125,250.9025 165.04,250.915 164.86375,250.915 C164.68875,250.915 164.51625,250.9025 164.345,250.88375 L144.4475,250.88375 C144.19375,250.88375 143.94625,250.85625 143.705,250.80875 C143.39375,250.87625 143.0725,250.915 142.74,250.915 C140.31625,250.915 138.34875,249.035 138.34875,246.71625 L138.34875,218.14125 C138.34875,215.8225 140.31625,213.9425 142.74,213.9425 C145.16375,213.9425 147.13,215.8225 147.13,218.14125 L147.13,242.0775 L160.475,242.0775 L160.475,218.14125 C160.475,217.99125 160.4825,217.8425 160.49875,217.69625 C159.7875,217.5575 159.3525,217.4525 159.3525,217.4525 C158.795,217.4525 158.2625,217.335 157.775,217.12625 C156.04875,217.2175 154.2825,217.65625 153.77375,221.4475 C153.79125,221.84 153.85375,222.2425 153.915,222.6025 C152.91,221.36125 152.24625,219.5175 152.15125,217.34125 C151.9725,213.19375 154.33,210.20875 157.08125,209.23875 C157.73625,208.77 158.515,208.49 159.3525,208.49 C159.3525,208.49 162.92,207.69 166.515,207.69 C169.0175,207.69 171.535,208.06625 172.87125,208.3025 C173.2975,207.54 174.24,207.00875 175.3375,207.00875 C176.835,207.00875 178.05,207.99625 178.05,209.215 L178.05,216.5625 C178.05,217.78125 176.835,218.76875 175.3375,218.76875 C174.3275,218.76875 173.44625,218.31875 172.98,217.65125 C172.15375,217.82625 170.80875,218.07625 169.25375,218.2275 L169.25375,242.0775 L182.8675,242.0775 L182.8675,218.14125 C182.8675,215.8225 184.8325,213.9425 187.2575,213.9425 C189.6825,213.9425 191.6475,215.8225 191.6475,218.14125 L191.6475,246.71625 Z M165,189 C142.90875,189 125,206.90875 125,229 C125,251.0925 142.90875,269 165,269 C187.09,269 205,251.0925 205,229 C205,206.90875 187.09,189 165,189 Z" opacity=".2"/>
    <g transform="translate(54.33 182.165)">
      <path fill="#002742" d="M0,31.1890244 L0,0 L22.1341463,0 L22.1341463,31.1890244 L0,31.1890244 Z M199.207317,31.1890244 L199.207317,0 L221.341463,0 L221.341463,31.1890244 L199.207317,31.1890244 Z"/>
      <path fill="#054B7C" d="M0,3.01829268 L0,0 L22.1341463,0 L22.1341463,3.01829268 L0,3.01829268 Z M199.207317,3.01829268 L199.207317,0 L221.341463,0 L221.341463,3.01829268 L199.207317,3.01829268 Z"/>
    </g>
    <g stroke-linecap="round" stroke-linejoin="round">
      <use fill="#339BE3" xlink:href="#分组-66-p"/>
      <path fill="url(#分组-66-q)" stroke="#FFF" stroke-opacity=".132" stroke-width="2" d="M60.3719512,204.292683 L60.3719512,191.22561 L70.4207317,191.22561 L70.4207317,204.292683 L60.3719512,204.292683 Z M259.579268,204.292683 L259.579268,191.22561 L269.628049,191.22561 L269.628049,204.292683 L259.579268,204.292683 Z"/>
    </g>
    <polygon fill="#47ABFF" points="1.436 167.073 0 171.098 330 171.098 328.564 167.073"/>
  </g>
</svg>
