<?xml version="1.0" encoding="utf-8"?>
<!-- Generator: Adobe Illustrator 22.0.1, SVG Export Plug-In . SVG Version: 6.00 Build 0)  -->
<svg version="1.1" id="图层_1" xmlns="http://www.w3.org/2000/svg" xmlns:xlink="http://www.w3.org/1999/xlink" x="0px" y="0px"
	 viewBox="0 0 360 273" style="enable-background:new 0 0 360 273;" xml:space="preserve">
<style type="text/css">
	.st0{fill:#007DD9;}
	.st1{fill:url(#分组-55_x40_1x-a_2_);fill-opacity:0.5;}
	.st2{opacity:0.2;fill:#FFFFFF;enable-background:new    ;}
	.st3{fill:#002742;}
	.st4{fill:#F1C03C;}
	.st5{fill:#242A57;}
	.st6{fill:url(#分组-55_x40_1x-e_2_);fill-opacity:0.5;}
	.st7{fill:#E5E5E5;}
	.st8{fill:#CCCCCC;}
</style>
<polygon id="分组-55_x40_1x-a" class="st0" points="60,225.2 172.5,225.2 172.5,0 60,0 "/>
<linearGradient id="分组-55_x40_1x-a_2_" gradientUnits="userSpaceOnUse" x1="-497.5378" y1="519.903" x2="-496.5378" y2="518.903" gradientTransform="matrix(112.5 0 0 -225.155 56033 117058.7578)">
	<stop  offset="0" style="stop-color:#00B4EE"/>
	<stop  offset="1" style="stop-color:#007DD9"/>
</linearGradient>
<polygon id="分组-55_x40_1x-a_1_" class="st1" points="60,225.2 172.5,225.2 172.5,0 60,0 "/>
<path class="st2" d="M153.3,211.1h12.7v-66.8h-12.7V211.1z M136.4,211.1h12.7v-66.8h-12.7V211.1z M119.5,211.1h12.7v-66.8h-12.7
	V211.1z M102.7,211.1h12.7v-66.8h-12.7V211.1z M85.8,211.1h12.7v-66.8H85.8V211.1z M68.9,211.1h12.7v-66.8H68.9V211.1z M66.1,36.6
	h102.7V14.1H66.1V36.6z M66.1,61.9h102.7V39.4H66.1V61.9z M66.1,87.6h102.7V65.1H66.1V87.6z M66.1,113.9h102.7V91.4H66.1V113.9z"/>
<path class="st3" d="M69,33.9V17h96.7v16.9H69z M69,58.9V42h96.7v16.9H69z M69,84.9V68h96.7v16.9H69z M69,110.9V94h96.7v16.9H69z"/>
<path id="分组-55_x40_1x-d_1_" class="st4" d="M140,129c0-2.8,2.2-5,5-5c2.8,0,5,2.2,5,5c0,2.8-2.2,5-5,5
	C142.2,134,140,131.8,140,129z"/>
<path class="st5" d="M124,129c0-2.8,2.2-5,5-5c2.8,0,5,2.2,5,5c0,2.8-2.2,5-5,5C126.2,134,124,131.8,124,129z M156,129
	c0-2.8,2.2-5,5-5c2.8,0,5,2.2,5,5c0,2.8-2.2,5-5,5C158.2,134,156,131.8,156,129z"/>
<polygon id="分组-55_x40_1x-e" class="st0" points="187.5,225.2 300,225.2 300,0 187.5,0 "/>
<linearGradient id="分组-55_x40_1x-e_2_" gradientUnits="userSpaceOnUse" x1="-497.5378" y1="519.903" x2="-496.5378" y2="518.903" gradientTransform="matrix(112.5 0 0 -225.155 56160.4688 117058.7578)">
	<stop  offset="0" style="stop-color:#00B4EE"/>
	<stop  offset="1" style="stop-color:#007DD9"/>
</linearGradient>
<polygon id="分组-55_x40_1x-e_1_" class="st6" points="187.5,225.2 300,225.2 300,0 187.5,0 "/>
<path class="st2" d="M280.3,211.1h12.7v-66.8h-12.7V211.1z M263.4,211.1h12.7v-66.8h-12.7V211.1z M246.5,211.1h12.7v-66.8h-12.7
	V211.1z M229.7,211.1h12.7v-66.8h-12.7V211.1z M212.8,211.1h12.7v-66.8h-12.7V211.1z M195.9,211.1h12.7v-66.8h-12.7V211.1z
	 M193.1,36.6h102.7V14.1H193.1V36.6z M193.1,61.9h102.7V39.4H193.1V61.9z M193.1,87.6h102.7V65.1H193.1V87.6z M193.1,113.9h102.7
	V91.4H193.1V113.9z"/>
<path class="st3" d="M196,33.9V17h96.7v16.9H196z M196,58.9V42h96.7v16.9H196z M196,84.9V68h96.7v16.9H196z M196,110.9V94h96.7v16.9
	H196z"/>
<path class="st5" d="M251,129c0-2.8,2.2-5,5-5c2.8,0,5,2.2,5,5c0,2.8-2.2,5-5,5C253.2,134,251,131.8,251,129z M267,129
	c0-2.8,2.2-5,5-5c2.8,0,5,2.2,5,5c0,2.8-2.2,5-5,5C269.2,134,267,131.8,267,129z"/>
<path id="分组-55_x40_1x-g_1_" class="st4" d="M283,129c0-2.8,2.2-5,5-5c2.8,0,5,2.2,5,5c0,2.8-2.2,5-5,5
	C285.2,134,283,131.8,283,129z"/>
<path class="st7" d="M111.1,258.9h11.2v-33.8h-11.2V258.9z M238.1,258.9h11.2v-33.8h-11.2V258.9z M0,270.2h360v-11.3H0V270.2z"/>
<path class="st8" d="M98.4,273H135v-16.9H98.4V273z M225,273h36.6v-16.9H225V273z"/>
</svg>
